<mxfile host="Electron" modified="2024-03-18T12:43:47.906Z" agent="Mozilla/5.0 (Windows NT 10.0; Win64; x64) AppleWebKit/537.36 (KHTML, like Gecko) draw.io/24.0.4 Chrome/120.0.6099.109 Electron/28.1.0 Safari/537.36" etag="xunmEt2hho61BSs4WbIF" version="24.0.4" type="device">
  <diagram name="ページ1" id="LE8fIzdrHe0wcv1LTvfw">
    <mxGraphModel dx="1700" dy="1004" grid="1" gridSize="10" guides="1" tooltips="1" connect="1" arrows="1" fold="1" page="1" pageScale="1" pageWidth="1600" pageHeight="1200" math="0" shadow="0">
      <root>
        <mxCell id="0" />
        <mxCell id="cFaB45KztUIKXS-_cTrr-4" value="背景" style="locked=1;" parent="0" visible="0" />
        <mxCell id="cFaB45KztUIKXS-_cTrr-5" value="" style="rounded=0;whiteSpace=wrap;html=1;strokeWidth=3;" parent="cFaB45KztUIKXS-_cTrr-4" vertex="1">
          <mxGeometry x="1" y="1" width="1595" height="1180" as="geometry" />
        </mxCell>
        <mxCell id="cFaB45KztUIKXS-_cTrr-6" value="" style="rounded=0;whiteSpace=wrap;html=1;fillColor=#B3B3B3;fontColor=#333333;strokeColor=#666666;" parent="cFaB45KztUIKXS-_cTrr-4" vertex="1">
          <mxGeometry width="1595" height="60" as="geometry" />
        </mxCell>
        <mxCell id="cFaB45KztUIKXS-_cTrr-7" value="&lt;font style=&quot;font-size: 48px;&quot;&gt;×&lt;/font&gt;" style="rounded=0;whiteSpace=wrap;html=1;" parent="cFaB45KztUIKXS-_cTrr-4" vertex="1">
          <mxGeometry x="1550" y="10" width="40" height="40" as="geometry" />
        </mxCell>
        <mxCell id="cFaB45KztUIKXS-_cTrr-8" value="" style="rounded=0;whiteSpace=wrap;html=1;" parent="cFaB45KztUIKXS-_cTrr-4" vertex="1">
          <mxGeometry x="830" y="670" width="120" height="60" as="geometry" />
        </mxCell>
        <mxCell id="cFaB45KztUIKXS-_cTrr-9" value="ウインドウ" style="locked=1;" parent="0" />
        <mxCell id="cFaB45KztUIKXS-_cTrr-10" value="" style="rounded=0;whiteSpace=wrap;html=1;strokeWidth=3;" parent="cFaB45KztUIKXS-_cTrr-9" vertex="1">
          <mxGeometry x="1" y="1" width="1595" height="1669" as="geometry" />
        </mxCell>
        <mxCell id="cFaB45KztUIKXS-_cTrr-11" value="" style="rounded=0;whiteSpace=wrap;html=1;fillColor=#B3B3B3;fontColor=#333333;strokeColor=#666666;" parent="cFaB45KztUIKXS-_cTrr-9" vertex="1">
          <mxGeometry width="1595" height="60" as="geometry" />
        </mxCell>
        <mxCell id="cFaB45KztUIKXS-_cTrr-12" value="&lt;font style=&quot;font-size: 48px;&quot;&gt;×&lt;/font&gt;" style="rounded=0;whiteSpace=wrap;html=1;" parent="cFaB45KztUIKXS-_cTrr-9" vertex="1">
          <mxGeometry x="1550" y="10" width="40" height="40" as="geometry" />
        </mxCell>
        <mxCell id="cFaB45KztUIKXS-_cTrr-14" value="名称未設定レイヤ" style="" parent="0" />
        <mxCell id="cDHuPOXS9VM1hq6QltUD-36" value="&lt;font style=&quot;font-size: 30px;&quot;&gt;0123&lt;/font&gt;" style="rounded=0;whiteSpace=wrap;html=1;align=right;fillColor=#CCCCCC;" parent="cFaB45KztUIKXS-_cTrr-14" vertex="1">
          <mxGeometry x="360" y="113" width="200" height="48" as="geometry" />
        </mxCell>
        <mxCell id="cDHuPOXS9VM1hq6QltUD-43" value="&lt;span style=&quot;font-size: 30px;&quot;&gt;政治資金収支報告書&lt;/span&gt;" style="rounded=0;whiteSpace=wrap;html=1;align=right;dashed=1;dashPattern=8 8;verticalAlign=bottom;" parent="cFaB45KztUIKXS-_cTrr-14" vertex="1">
          <mxGeometry x="29" y="112" width="310" height="46" as="geometry" />
        </mxCell>
        <mxCell id="cDHuPOXS9VM1hq6QltUD-46" value="&lt;span style=&quot;font-size: 30px;&quot;&gt;架空市選挙管理委員会&lt;/span&gt;" style="rounded=0;whiteSpace=wrap;html=1;align=left;fillColor=#CCCCCC;" parent="cFaB45KztUIKXS-_cTrr-14" vertex="1">
          <mxGeometry x="580" y="113" width="430" height="48" as="geometry" />
        </mxCell>
        <mxCell id="cDHuPOXS9VM1hq6QltUD-47" value="&lt;span style=&quot;font-size: 30px;&quot;&gt;提出年&lt;/span&gt;" style="rounded=0;whiteSpace=wrap;html=1;align=right;dashed=1;dashPattern=8 8;verticalAlign=bottom;" parent="cFaB45KztUIKXS-_cTrr-14" vertex="1">
          <mxGeometry x="30" y="172" width="309" height="46" as="geometry" />
        </mxCell>
        <mxCell id="cDHuPOXS9VM1hq6QltUD-48" value="&lt;span style=&quot;font-size: 30px;&quot;&gt;▼2022&lt;/span&gt;" style="rounded=0;whiteSpace=wrap;html=1;align=left;fillColor=#CCCCCC;" parent="cFaB45KztUIKXS-_cTrr-14" vertex="1">
          <mxGeometry x="360" y="173" width="200" height="48" as="geometry" />
        </mxCell>
        <mxCell id="wAjUPPsb0E5kBIjXr_kq-63" value="&lt;span style=&quot;font-size: 30px;&quot;&gt;年間全リスト&lt;/span&gt;" style="rounded=0;whiteSpace=wrap;html=1;align=left;dashed=1;dashPattern=8 8;verticalAlign=bottom;" parent="cFaB45KztUIKXS-_cTrr-14" vertex="1">
          <mxGeometry x="28" y="255" width="310" height="46" as="geometry" />
        </mxCell>
        <mxCell id="wAjUPPsb0E5kBIjXr_kq-64" value="" style="shape=table;startSize=0;container=1;collapsible=0;childLayout=tableLayout;fontSize=16;" parent="cFaB45KztUIKXS-_cTrr-14" vertex="1">
          <mxGeometry x="40" y="333" width="1390" height="677" as="geometry" />
        </mxCell>
        <mxCell id="wAjUPPsb0E5kBIjXr_kq-65" value="" style="shape=tableRow;horizontal=0;startSize=0;swimlaneHead=0;swimlaneBody=0;strokeColor=inherit;top=0;left=0;bottom=0;right=0;collapsible=0;dropTarget=0;fillColor=none;points=[[0,0.5],[1,0.5]];portConstraint=eastwest;fontSize=16;" parent="wAjUPPsb0E5kBIjXr_kq-64" vertex="1">
          <mxGeometry width="1390" height="40" as="geometry" />
        </mxCell>
        <mxCell id="wAjUPPsb0E5kBIjXr_kq-67" value="&lt;span style=&quot;font-size: 30px;&quot;&gt;提出回数&lt;/span&gt;" style="shape=partialRectangle;html=1;whiteSpace=wrap;connectable=0;strokeColor=inherit;overflow=hidden;fillColor=none;top=0;left=0;bottom=0;right=0;pointerEvents=1;fontSize=16;" parent="wAjUPPsb0E5kBIjXr_kq-65" vertex="1">
          <mxGeometry width="160" height="40" as="geometry">
            <mxRectangle width="160" height="40" as="alternateBounds" />
          </mxGeometry>
        </mxCell>
        <mxCell id="wAjUPPsb0E5kBIjXr_kq-68" value="&lt;font style=&quot;font-size: 30px;&quot;&gt;システム&lt;/font&gt;" style="shape=partialRectangle;html=1;whiteSpace=wrap;connectable=0;strokeColor=inherit;overflow=hidden;fillColor=none;top=0;left=0;bottom=0;right=0;pointerEvents=1;fontSize=16;" parent="wAjUPPsb0E5kBIjXr_kq-65" vertex="1">
          <mxGeometry x="160" width="210" height="40" as="geometry">
            <mxRectangle width="210" height="40" as="alternateBounds" />
          </mxGeometry>
        </mxCell>
        <mxCell id="wAjUPPsb0E5kBIjXr_kq-69" value="&lt;span style=&quot;font-size: 30px;&quot;&gt;公式サイト&lt;/span&gt;" style="shape=partialRectangle;html=1;whiteSpace=wrap;connectable=0;strokeColor=inherit;overflow=hidden;fillColor=none;top=0;left=0;bottom=0;right=0;pointerEvents=1;fontSize=16;" parent="wAjUPPsb0E5kBIjXr_kq-65" vertex="1">
          <mxGeometry x="370" width="440" height="40" as="geometry">
            <mxRectangle width="440" height="40" as="alternateBounds" />
          </mxGeometry>
        </mxCell>
        <mxCell id="wAjUPPsb0E5kBIjXr_kq-71" value="&lt;font style=&quot;font-size: 30px;&quot;&gt;非公式サイト&lt;/font&gt;" style="shape=partialRectangle;html=1;whiteSpace=wrap;connectable=0;strokeColor=inherit;overflow=hidden;fillColor=none;top=0;left=0;bottom=0;right=0;pointerEvents=1;fontSize=16;" parent="wAjUPPsb0E5kBIjXr_kq-65" vertex="1">
          <mxGeometry x="810" width="580" height="40" as="geometry">
            <mxRectangle width="580" height="40" as="alternateBounds" />
          </mxGeometry>
        </mxCell>
        <mxCell id="wAjUPPsb0E5kBIjXr_kq-73" value="" style="shape=tableRow;horizontal=0;startSize=0;swimlaneHead=0;swimlaneBody=0;strokeColor=inherit;top=0;left=0;bottom=0;right=0;collapsible=0;dropTarget=0;fillColor=none;points=[[0,0.5],[1,0.5]];portConstraint=eastwest;fontSize=16;" parent="wAjUPPsb0E5kBIjXr_kq-64" vertex="1">
          <mxGeometry y="40" width="1390" height="57" as="geometry" />
        </mxCell>
        <mxCell id="wAjUPPsb0E5kBIjXr_kq-75" value="&lt;font style=&quot;font-size: 30px;&quot;&gt;4&lt;/font&gt;" style="shape=partialRectangle;html=1;whiteSpace=wrap;connectable=0;strokeColor=inherit;overflow=hidden;fillColor=none;top=0;left=0;bottom=0;right=0;pointerEvents=1;fontSize=16;" parent="wAjUPPsb0E5kBIjXr_kq-73" vertex="1">
          <mxGeometry width="160" height="57" as="geometry">
            <mxRectangle width="160" height="57" as="alternateBounds" />
          </mxGeometry>
        </mxCell>
        <mxCell id="wAjUPPsb0E5kBIjXr_kq-76" value="" style="shape=partialRectangle;html=1;whiteSpace=wrap;connectable=0;strokeColor=inherit;overflow=hidden;fillColor=none;top=0;left=0;bottom=0;right=0;pointerEvents=1;fontSize=16;" parent="wAjUPPsb0E5kBIjXr_kq-73" vertex="1">
          <mxGeometry x="160" width="210" height="57" as="geometry">
            <mxRectangle width="210" height="57" as="alternateBounds" />
          </mxGeometry>
        </mxCell>
        <mxCell id="wAjUPPsb0E5kBIjXr_kq-77" value="&lt;font style=&quot;font-size: 30px;&quot;&gt;&lt;u&gt;架空市選挙管理委員会&lt;/u&gt;&lt;/font&gt;" style="shape=partialRectangle;html=1;whiteSpace=wrap;connectable=0;strokeColor=inherit;overflow=hidden;fillColor=none;top=0;left=0;bottom=0;right=0;pointerEvents=1;fontSize=16;" parent="wAjUPPsb0E5kBIjXr_kq-73" vertex="1">
          <mxGeometry x="370" width="440" height="57" as="geometry">
            <mxRectangle width="440" height="57" as="alternateBounds" />
          </mxGeometry>
        </mxCell>
        <mxCell id="wAjUPPsb0E5kBIjXr_kq-79" value="" style="shape=partialRectangle;html=1;whiteSpace=wrap;connectable=0;strokeColor=inherit;overflow=hidden;fillColor=none;top=0;left=0;bottom=0;right=0;pointerEvents=1;fontSize=16;align=left;" parent="wAjUPPsb0E5kBIjXr_kq-73" vertex="1">
          <mxGeometry x="810" width="580" height="57" as="geometry">
            <mxRectangle width="580" height="57" as="alternateBounds" />
          </mxGeometry>
        </mxCell>
        <mxCell id="wAjUPPsb0E5kBIjXr_kq-81" value="" style="shape=tableRow;horizontal=0;startSize=0;swimlaneHead=0;swimlaneBody=0;strokeColor=inherit;top=0;left=0;bottom=0;right=0;collapsible=0;dropTarget=0;fillColor=none;points=[[0,0.5],[1,0.5]];portConstraint=eastwest;fontSize=16;align=left;" parent="wAjUPPsb0E5kBIjXr_kq-64" vertex="1">
          <mxGeometry y="97" width="1390" height="50" as="geometry" />
        </mxCell>
        <mxCell id="wAjUPPsb0E5kBIjXr_kq-83" value="" style="shape=partialRectangle;html=1;whiteSpace=wrap;connectable=0;strokeColor=inherit;overflow=hidden;fillColor=none;top=0;left=0;bottom=0;right=0;pointerEvents=1;fontSize=16;" parent="wAjUPPsb0E5kBIjXr_kq-81" vertex="1">
          <mxGeometry width="160" height="50" as="geometry">
            <mxRectangle width="160" height="50" as="alternateBounds" />
          </mxGeometry>
        </mxCell>
        <mxCell id="wAjUPPsb0E5kBIjXr_kq-84" value="&lt;font style=&quot;font-size: 30px;&quot;&gt;&lt;br&gt;&lt;/font&gt;" style="shape=partialRectangle;html=1;whiteSpace=wrap;connectable=0;strokeColor=inherit;overflow=hidden;fillColor=none;top=0;left=0;bottom=0;right=0;pointerEvents=1;fontSize=16;" parent="wAjUPPsb0E5kBIjXr_kq-81" vertex="1">
          <mxGeometry x="160" width="210" height="50" as="geometry">
            <mxRectangle width="210" height="50" as="alternateBounds" />
          </mxGeometry>
        </mxCell>
        <mxCell id="wAjUPPsb0E5kBIjXr_kq-85" value="" style="shape=partialRectangle;html=1;whiteSpace=wrap;connectable=0;strokeColor=inherit;overflow=hidden;fillColor=none;top=0;left=0;bottom=0;right=0;pointerEvents=1;fontSize=16;" parent="wAjUPPsb0E5kBIjXr_kq-81" vertex="1">
          <mxGeometry x="370" width="440" height="50" as="geometry">
            <mxRectangle width="440" height="50" as="alternateBounds" />
          </mxGeometry>
        </mxCell>
        <mxCell id="wAjUPPsb0E5kBIjXr_kq-87" value="&lt;span style=&quot;font-size: 30px;&quot;&gt;&lt;u&gt;市民団体1&lt;/u&gt;&lt;/span&gt;" style="shape=partialRectangle;html=1;whiteSpace=wrap;connectable=0;strokeColor=inherit;overflow=hidden;fillColor=none;top=0;left=0;bottom=0;right=0;pointerEvents=1;fontSize=16;align=left;" parent="wAjUPPsb0E5kBIjXr_kq-81" vertex="1">
          <mxGeometry x="810" width="580" height="50" as="geometry">
            <mxRectangle width="580" height="50" as="alternateBounds" />
          </mxGeometry>
        </mxCell>
        <mxCell id="wAjUPPsb0E5kBIjXr_kq-89" style="shape=tableRow;horizontal=0;startSize=0;swimlaneHead=0;swimlaneBody=0;strokeColor=inherit;top=0;left=0;bottom=0;right=0;collapsible=0;dropTarget=0;fillColor=none;points=[[0,0.5],[1,0.5]];portConstraint=eastwest;fontSize=16;" parent="wAjUPPsb0E5kBIjXr_kq-64" vertex="1">
          <mxGeometry y="147" width="1390" height="60" as="geometry" />
        </mxCell>
        <mxCell id="wAjUPPsb0E5kBIjXr_kq-91" value="" style="shape=partialRectangle;html=1;whiteSpace=wrap;connectable=0;strokeColor=inherit;overflow=hidden;fillColor=none;top=0;left=0;bottom=0;right=0;pointerEvents=1;fontSize=16;" parent="wAjUPPsb0E5kBIjXr_kq-89" vertex="1">
          <mxGeometry width="160" height="60" as="geometry">
            <mxRectangle width="160" height="60" as="alternateBounds" />
          </mxGeometry>
        </mxCell>
        <mxCell id="wAjUPPsb0E5kBIjXr_kq-92" value="&lt;font style=&quot;font-size: 30px;&quot;&gt;&lt;br&gt;&lt;/font&gt;" style="shape=partialRectangle;html=1;whiteSpace=wrap;connectable=0;strokeColor=inherit;overflow=hidden;fillColor=none;top=0;left=0;bottom=0;right=0;pointerEvents=1;fontSize=16;" parent="wAjUPPsb0E5kBIjXr_kq-89" vertex="1">
          <mxGeometry x="160" width="210" height="60" as="geometry">
            <mxRectangle width="210" height="60" as="alternateBounds" />
          </mxGeometry>
        </mxCell>
        <mxCell id="wAjUPPsb0E5kBIjXr_kq-93" value="" style="shape=partialRectangle;html=1;whiteSpace=wrap;connectable=0;strokeColor=inherit;overflow=hidden;fillColor=none;top=0;left=0;bottom=0;right=0;pointerEvents=1;fontSize=16;" parent="wAjUPPsb0E5kBIjXr_kq-89" vertex="1">
          <mxGeometry x="370" width="440" height="60" as="geometry">
            <mxRectangle width="440" height="60" as="alternateBounds" />
          </mxGeometry>
        </mxCell>
        <mxCell id="wAjUPPsb0E5kBIjXr_kq-95" value="&lt;span style=&quot;font-size: 30px;&quot;&gt;&lt;u&gt;市民団体2&lt;/u&gt;&lt;/span&gt;" style="shape=partialRectangle;html=1;whiteSpace=wrap;connectable=0;strokeColor=inherit;overflow=hidden;fillColor=none;top=0;left=0;bottom=0;right=0;pointerEvents=1;fontSize=16;align=left;" parent="wAjUPPsb0E5kBIjXr_kq-89" vertex="1">
          <mxGeometry x="810" width="580" height="60" as="geometry">
            <mxRectangle width="580" height="60" as="alternateBounds" />
          </mxGeometry>
        </mxCell>
        <mxCell id="wAjUPPsb0E5kBIjXr_kq-97" style="shape=tableRow;horizontal=0;startSize=0;swimlaneHead=0;swimlaneBody=0;strokeColor=inherit;top=0;left=0;bottom=0;right=0;collapsible=0;dropTarget=0;fillColor=none;points=[[0,0.5],[1,0.5]];portConstraint=eastwest;fontSize=16;" parent="wAjUPPsb0E5kBIjXr_kq-64" vertex="1">
          <mxGeometry y="207" width="1390" height="60" as="geometry" />
        </mxCell>
        <mxCell id="wAjUPPsb0E5kBIjXr_kq-99" value="&lt;font style=&quot;font-size: 30px;&quot;&gt;3&lt;/font&gt;" style="shape=partialRectangle;html=1;whiteSpace=wrap;connectable=0;strokeColor=inherit;overflow=hidden;fillColor=none;top=0;left=0;bottom=0;right=0;pointerEvents=1;fontSize=16;" parent="wAjUPPsb0E5kBIjXr_kq-97" vertex="1">
          <mxGeometry width="160" height="60" as="geometry">
            <mxRectangle width="160" height="60" as="alternateBounds" />
          </mxGeometry>
        </mxCell>
        <mxCell id="wAjUPPsb0E5kBIjXr_kq-100" value="" style="shape=partialRectangle;html=1;whiteSpace=wrap;connectable=0;strokeColor=inherit;overflow=hidden;fillColor=none;top=0;left=0;bottom=0;right=0;pointerEvents=1;fontSize=16;" parent="wAjUPPsb0E5kBIjXr_kq-97" vertex="1">
          <mxGeometry x="160" width="210" height="60" as="geometry">
            <mxRectangle width="210" height="60" as="alternateBounds" />
          </mxGeometry>
        </mxCell>
        <mxCell id="wAjUPPsb0E5kBIjXr_kq-101" value="&lt;span style=&quot;font-size: 30px;&quot;&gt;&lt;u&gt;架空市選挙管理委員会&lt;/u&gt;&lt;/span&gt;&lt;span style=&quot;font-size: 30px;&quot;&gt;&lt;br&gt;&lt;/span&gt;" style="shape=partialRectangle;html=1;whiteSpace=wrap;connectable=0;strokeColor=inherit;overflow=hidden;fillColor=none;top=0;left=0;bottom=0;right=0;pointerEvents=1;fontSize=16;" parent="wAjUPPsb0E5kBIjXr_kq-97" vertex="1">
          <mxGeometry x="370" width="440" height="60" as="geometry">
            <mxRectangle width="440" height="60" as="alternateBounds" />
          </mxGeometry>
        </mxCell>
        <mxCell id="wAjUPPsb0E5kBIjXr_kq-103" value="&lt;div style=&quot;&quot;&gt;&lt;br&gt;&lt;/div&gt;" style="shape=partialRectangle;html=1;whiteSpace=wrap;connectable=0;strokeColor=inherit;overflow=hidden;fillColor=none;top=0;left=0;bottom=0;right=0;pointerEvents=1;fontSize=16;align=left;" parent="wAjUPPsb0E5kBIjXr_kq-97" vertex="1">
          <mxGeometry x="810" width="580" height="60" as="geometry">
            <mxRectangle width="580" height="60" as="alternateBounds" />
          </mxGeometry>
        </mxCell>
        <mxCell id="a60xYnYdOCziBmsJ2w36-7" style="shape=tableRow;horizontal=0;startSize=0;swimlaneHead=0;swimlaneBody=0;strokeColor=inherit;top=0;left=0;bottom=0;right=0;collapsible=0;dropTarget=0;fillColor=none;points=[[0,0.5],[1,0.5]];portConstraint=eastwest;fontSize=16;" parent="wAjUPPsb0E5kBIjXr_kq-64" vertex="1">
          <mxGeometry y="267" width="1390" height="50" as="geometry" />
        </mxCell>
        <mxCell id="a60xYnYdOCziBmsJ2w36-9" style="shape=partialRectangle;html=1;whiteSpace=wrap;connectable=0;strokeColor=inherit;overflow=hidden;fillColor=none;top=0;left=0;bottom=0;right=0;pointerEvents=1;fontSize=16;" parent="a60xYnYdOCziBmsJ2w36-7" vertex="1">
          <mxGeometry width="160" height="50" as="geometry">
            <mxRectangle width="160" height="50" as="alternateBounds" />
          </mxGeometry>
        </mxCell>
        <mxCell id="a60xYnYdOCziBmsJ2w36-10" style="shape=partialRectangle;html=1;whiteSpace=wrap;connectable=0;strokeColor=inherit;overflow=hidden;fillColor=none;top=0;left=0;bottom=0;right=0;pointerEvents=1;fontSize=16;" parent="a60xYnYdOCziBmsJ2w36-7" vertex="1">
          <mxGeometry x="160" width="210" height="50" as="geometry">
            <mxRectangle width="210" height="50" as="alternateBounds" />
          </mxGeometry>
        </mxCell>
        <mxCell id="a60xYnYdOCziBmsJ2w36-11" value="" style="shape=partialRectangle;html=1;whiteSpace=wrap;connectable=0;strokeColor=inherit;overflow=hidden;fillColor=none;top=0;left=0;bottom=0;right=0;pointerEvents=1;fontSize=16;" parent="a60xYnYdOCziBmsJ2w36-7" vertex="1">
          <mxGeometry x="370" width="440" height="50" as="geometry">
            <mxRectangle width="440" height="50" as="alternateBounds" />
          </mxGeometry>
        </mxCell>
        <mxCell id="a60xYnYdOCziBmsJ2w36-13" value="&lt;span style=&quot;font-size: 30px;&quot;&gt;&lt;u&gt;市民団体1&lt;/u&gt;&lt;/span&gt;" style="shape=partialRectangle;html=1;whiteSpace=wrap;connectable=0;strokeColor=inherit;overflow=hidden;fillColor=none;top=0;left=0;bottom=0;right=0;pointerEvents=1;fontSize=16;align=left;" parent="a60xYnYdOCziBmsJ2w36-7" vertex="1">
          <mxGeometry x="810" width="580" height="50" as="geometry">
            <mxRectangle width="580" height="50" as="alternateBounds" />
          </mxGeometry>
        </mxCell>
        <mxCell id="a60xYnYdOCziBmsJ2w36-0" style="shape=tableRow;horizontal=0;startSize=0;swimlaneHead=0;swimlaneBody=0;strokeColor=inherit;top=0;left=0;bottom=0;right=0;collapsible=0;dropTarget=0;fillColor=none;points=[[0,0.5],[1,0.5]];portConstraint=eastwest;fontSize=16;" parent="wAjUPPsb0E5kBIjXr_kq-64" vertex="1">
          <mxGeometry y="317" width="1390" height="60" as="geometry" />
        </mxCell>
        <mxCell id="a60xYnYdOCziBmsJ2w36-2" value="&lt;font style=&quot;font-size: 30px;&quot;&gt;2&lt;/font&gt;" style="shape=partialRectangle;html=1;whiteSpace=wrap;connectable=0;strokeColor=inherit;overflow=hidden;fillColor=none;top=0;left=0;bottom=0;right=0;pointerEvents=1;fontSize=16;" parent="a60xYnYdOCziBmsJ2w36-0" vertex="1">
          <mxGeometry width="160" height="60" as="geometry">
            <mxRectangle width="160" height="60" as="alternateBounds" />
          </mxGeometry>
        </mxCell>
        <mxCell id="a60xYnYdOCziBmsJ2w36-3" style="shape=partialRectangle;html=1;whiteSpace=wrap;connectable=0;strokeColor=inherit;overflow=hidden;fillColor=none;top=0;left=0;bottom=0;right=0;pointerEvents=1;fontSize=16;" parent="a60xYnYdOCziBmsJ2w36-0" vertex="1">
          <mxGeometry x="160" width="210" height="60" as="geometry">
            <mxRectangle width="210" height="60" as="alternateBounds" />
          </mxGeometry>
        </mxCell>
        <mxCell id="a60xYnYdOCziBmsJ2w36-4" value="&lt;span style=&quot;font-size: 30px;&quot;&gt;&lt;u&gt;架空市選挙管理委員会&lt;/u&gt;&lt;/span&gt;" style="shape=partialRectangle;html=1;whiteSpace=wrap;connectable=0;strokeColor=inherit;overflow=hidden;fillColor=none;top=0;left=0;bottom=0;right=0;pointerEvents=1;fontSize=16;" parent="a60xYnYdOCziBmsJ2w36-0" vertex="1">
          <mxGeometry x="370" width="440" height="60" as="geometry">
            <mxRectangle width="440" height="60" as="alternateBounds" />
          </mxGeometry>
        </mxCell>
        <mxCell id="a60xYnYdOCziBmsJ2w36-6" value="" style="shape=partialRectangle;html=1;whiteSpace=wrap;connectable=0;strokeColor=inherit;overflow=hidden;fillColor=none;top=0;left=0;bottom=0;right=0;pointerEvents=1;fontSize=16;align=left;" parent="a60xYnYdOCziBmsJ2w36-0" vertex="1">
          <mxGeometry x="810" width="580" height="60" as="geometry">
            <mxRectangle width="580" height="60" as="alternateBounds" />
          </mxGeometry>
        </mxCell>
        <mxCell id="-7mqn2BqOzKnvA9Y6E0N-16" style="shape=tableRow;horizontal=0;startSize=0;swimlaneHead=0;swimlaneBody=0;strokeColor=inherit;top=0;left=0;bottom=0;right=0;collapsible=0;dropTarget=0;fillColor=none;points=[[0,0.5],[1,0.5]];portConstraint=eastwest;fontSize=16;" vertex="1" parent="wAjUPPsb0E5kBIjXr_kq-64">
          <mxGeometry y="377" width="1390" height="60" as="geometry" />
        </mxCell>
        <mxCell id="-7mqn2BqOzKnvA9Y6E0N-17" style="shape=partialRectangle;html=1;whiteSpace=wrap;connectable=0;strokeColor=inherit;overflow=hidden;fillColor=none;top=0;left=0;bottom=0;right=0;pointerEvents=1;fontSize=16;" vertex="1" parent="-7mqn2BqOzKnvA9Y6E0N-16">
          <mxGeometry width="160" height="60" as="geometry">
            <mxRectangle width="160" height="60" as="alternateBounds" />
          </mxGeometry>
        </mxCell>
        <mxCell id="-7mqn2BqOzKnvA9Y6E0N-18" style="shape=partialRectangle;html=1;whiteSpace=wrap;connectable=0;strokeColor=inherit;overflow=hidden;fillColor=none;top=0;left=0;bottom=0;right=0;pointerEvents=1;fontSize=16;" vertex="1" parent="-7mqn2BqOzKnvA9Y6E0N-16">
          <mxGeometry x="160" width="210" height="60" as="geometry">
            <mxRectangle width="210" height="60" as="alternateBounds" />
          </mxGeometry>
        </mxCell>
        <mxCell id="-7mqn2BqOzKnvA9Y6E0N-19" style="shape=partialRectangle;html=1;whiteSpace=wrap;connectable=0;strokeColor=inherit;overflow=hidden;fillColor=none;top=0;left=0;bottom=0;right=0;pointerEvents=1;fontSize=16;" vertex="1" parent="-7mqn2BqOzKnvA9Y6E0N-16">
          <mxGeometry x="370" width="440" height="60" as="geometry">
            <mxRectangle width="440" height="60" as="alternateBounds" />
          </mxGeometry>
        </mxCell>
        <mxCell id="-7mqn2BqOzKnvA9Y6E0N-20" value="&lt;span style=&quot;font-size: 30px;&quot;&gt;&lt;u&gt;市民団体1&lt;/u&gt;&lt;/span&gt;" style="shape=partialRectangle;html=1;whiteSpace=wrap;connectable=0;strokeColor=inherit;overflow=hidden;fillColor=none;top=0;left=0;bottom=0;right=0;pointerEvents=1;fontSize=16;align=left;" vertex="1" parent="-7mqn2BqOzKnvA9Y6E0N-16">
          <mxGeometry x="810" width="580" height="60" as="geometry">
            <mxRectangle width="580" height="60" as="alternateBounds" />
          </mxGeometry>
        </mxCell>
        <mxCell id="-7mqn2BqOzKnvA9Y6E0N-11" style="shape=tableRow;horizontal=0;startSize=0;swimlaneHead=0;swimlaneBody=0;strokeColor=inherit;top=0;left=0;bottom=0;right=0;collapsible=0;dropTarget=0;fillColor=none;points=[[0,0.5],[1,0.5]];portConstraint=eastwest;fontSize=16;" vertex="1" parent="wAjUPPsb0E5kBIjXr_kq-64">
          <mxGeometry y="437" width="1390" height="60" as="geometry" />
        </mxCell>
        <mxCell id="-7mqn2BqOzKnvA9Y6E0N-12" value="&lt;font style=&quot;font-size: 30px;&quot;&gt;1&lt;/font&gt;" style="shape=partialRectangle;html=1;whiteSpace=wrap;connectable=0;strokeColor=inherit;overflow=hidden;fillColor=none;top=0;left=0;bottom=0;right=0;pointerEvents=1;fontSize=16;" vertex="1" parent="-7mqn2BqOzKnvA9Y6E0N-11">
          <mxGeometry width="160" height="60" as="geometry">
            <mxRectangle width="160" height="60" as="alternateBounds" />
          </mxGeometry>
        </mxCell>
        <mxCell id="-7mqn2BqOzKnvA9Y6E0N-13" style="shape=partialRectangle;html=1;whiteSpace=wrap;connectable=0;strokeColor=inherit;overflow=hidden;fillColor=none;top=0;left=0;bottom=0;right=0;pointerEvents=1;fontSize=16;" vertex="1" parent="-7mqn2BqOzKnvA9Y6E0N-11">
          <mxGeometry x="160" width="210" height="60" as="geometry">
            <mxRectangle width="210" height="60" as="alternateBounds" />
          </mxGeometry>
        </mxCell>
        <mxCell id="-7mqn2BqOzKnvA9Y6E0N-14" value="&lt;u style=&quot;font-size: 30px;&quot;&gt;架空市選挙管理委員会&lt;/u&gt;" style="shape=partialRectangle;html=1;whiteSpace=wrap;connectable=0;strokeColor=inherit;overflow=hidden;fillColor=none;top=0;left=0;bottom=0;right=0;pointerEvents=1;fontSize=16;" vertex="1" parent="-7mqn2BqOzKnvA9Y6E0N-11">
          <mxGeometry x="370" width="440" height="60" as="geometry">
            <mxRectangle width="440" height="60" as="alternateBounds" />
          </mxGeometry>
        </mxCell>
        <mxCell id="-7mqn2BqOzKnvA9Y6E0N-15" style="shape=partialRectangle;html=1;whiteSpace=wrap;connectable=0;strokeColor=inherit;overflow=hidden;fillColor=none;top=0;left=0;bottom=0;right=0;pointerEvents=1;fontSize=16;align=left;" vertex="1" parent="-7mqn2BqOzKnvA9Y6E0N-11">
          <mxGeometry x="810" width="580" height="60" as="geometry">
            <mxRectangle width="580" height="60" as="alternateBounds" />
          </mxGeometry>
        </mxCell>
        <mxCell id="-7mqn2BqOzKnvA9Y6E0N-6" style="shape=tableRow;horizontal=0;startSize=0;swimlaneHead=0;swimlaneBody=0;strokeColor=inherit;top=0;left=0;bottom=0;right=0;collapsible=0;dropTarget=0;fillColor=none;points=[[0,0.5],[1,0.5]];portConstraint=eastwest;fontSize=16;" vertex="1" parent="wAjUPPsb0E5kBIjXr_kq-64">
          <mxGeometry y="497" width="1390" height="50" as="geometry" />
        </mxCell>
        <mxCell id="-7mqn2BqOzKnvA9Y6E0N-7" style="shape=partialRectangle;html=1;whiteSpace=wrap;connectable=0;strokeColor=inherit;overflow=hidden;fillColor=none;top=0;left=0;bottom=0;right=0;pointerEvents=1;fontSize=16;" vertex="1" parent="-7mqn2BqOzKnvA9Y6E0N-6">
          <mxGeometry width="160" height="50" as="geometry">
            <mxRectangle width="160" height="50" as="alternateBounds" />
          </mxGeometry>
        </mxCell>
        <mxCell id="-7mqn2BqOzKnvA9Y6E0N-8" style="shape=partialRectangle;html=1;whiteSpace=wrap;connectable=0;strokeColor=inherit;overflow=hidden;fillColor=none;top=0;left=0;bottom=0;right=0;pointerEvents=1;fontSize=16;" vertex="1" parent="-7mqn2BqOzKnvA9Y6E0N-6">
          <mxGeometry x="160" width="210" height="50" as="geometry">
            <mxRectangle width="210" height="50" as="alternateBounds" />
          </mxGeometry>
        </mxCell>
        <mxCell id="-7mqn2BqOzKnvA9Y6E0N-9" style="shape=partialRectangle;html=1;whiteSpace=wrap;connectable=0;strokeColor=inherit;overflow=hidden;fillColor=none;top=0;left=0;bottom=0;right=0;pointerEvents=1;fontSize=16;" vertex="1" parent="-7mqn2BqOzKnvA9Y6E0N-6">
          <mxGeometry x="370" width="440" height="50" as="geometry">
            <mxRectangle width="440" height="50" as="alternateBounds" />
          </mxGeometry>
        </mxCell>
        <mxCell id="-7mqn2BqOzKnvA9Y6E0N-10" value="&lt;u style=&quot;font-size: 30px;&quot;&gt;市民団体3&lt;/u&gt;" style="shape=partialRectangle;html=1;whiteSpace=wrap;connectable=0;strokeColor=inherit;overflow=hidden;fillColor=none;top=0;left=0;bottom=0;right=0;pointerEvents=1;fontSize=16;align=left;" vertex="1" parent="-7mqn2BqOzKnvA9Y6E0N-6">
          <mxGeometry x="810" width="580" height="50" as="geometry">
            <mxRectangle width="580" height="50" as="alternateBounds" />
          </mxGeometry>
        </mxCell>
        <mxCell id="-7mqn2BqOzKnvA9Y6E0N-21" style="shape=tableRow;horizontal=0;startSize=0;swimlaneHead=0;swimlaneBody=0;strokeColor=inherit;top=0;left=0;bottom=0;right=0;collapsible=0;dropTarget=0;fillColor=none;points=[[0,0.5],[1,0.5]];portConstraint=eastwest;fontSize=16;" vertex="1" parent="wAjUPPsb0E5kBIjXr_kq-64">
          <mxGeometry y="547" width="1390" height="60" as="geometry" />
        </mxCell>
        <mxCell id="-7mqn2BqOzKnvA9Y6E0N-22" style="shape=partialRectangle;html=1;whiteSpace=wrap;connectable=0;strokeColor=inherit;overflow=hidden;fillColor=none;top=0;left=0;bottom=0;right=0;pointerEvents=1;fontSize=16;" vertex="1" parent="-7mqn2BqOzKnvA9Y6E0N-21">
          <mxGeometry width="160" height="60" as="geometry">
            <mxRectangle width="160" height="60" as="alternateBounds" />
          </mxGeometry>
        </mxCell>
        <mxCell id="-7mqn2BqOzKnvA9Y6E0N-23" style="shape=partialRectangle;html=1;whiteSpace=wrap;connectable=0;strokeColor=inherit;overflow=hidden;fillColor=none;top=0;left=0;bottom=0;right=0;pointerEvents=1;fontSize=16;" vertex="1" parent="-7mqn2BqOzKnvA9Y6E0N-21">
          <mxGeometry x="160" width="210" height="60" as="geometry">
            <mxRectangle width="210" height="60" as="alternateBounds" />
          </mxGeometry>
        </mxCell>
        <mxCell id="-7mqn2BqOzKnvA9Y6E0N-24" style="shape=partialRectangle;html=1;whiteSpace=wrap;connectable=0;strokeColor=inherit;overflow=hidden;fillColor=none;top=0;left=0;bottom=0;right=0;pointerEvents=1;fontSize=16;" vertex="1" parent="-7mqn2BqOzKnvA9Y6E0N-21">
          <mxGeometry x="370" width="440" height="60" as="geometry">
            <mxRectangle width="440" height="60" as="alternateBounds" />
          </mxGeometry>
        </mxCell>
        <mxCell id="-7mqn2BqOzKnvA9Y6E0N-25" value="&lt;u style=&quot;font-size: 30px;&quot;&gt;市民団体2&lt;/u&gt;" style="shape=partialRectangle;html=1;whiteSpace=wrap;connectable=0;strokeColor=inherit;overflow=hidden;fillColor=none;top=0;left=0;bottom=0;right=0;pointerEvents=1;fontSize=16;align=left;" vertex="1" parent="-7mqn2BqOzKnvA9Y6E0N-21">
          <mxGeometry x="810" width="580" height="60" as="geometry">
            <mxRectangle width="580" height="60" as="alternateBounds" />
          </mxGeometry>
        </mxCell>
        <mxCell id="-7mqn2BqOzKnvA9Y6E0N-1" style="shape=tableRow;horizontal=0;startSize=0;swimlaneHead=0;swimlaneBody=0;strokeColor=inherit;top=0;left=0;bottom=0;right=0;collapsible=0;dropTarget=0;fillColor=none;points=[[0,0.5],[1,0.5]];portConstraint=eastwest;fontSize=16;" vertex="1" parent="wAjUPPsb0E5kBIjXr_kq-64">
          <mxGeometry y="607" width="1390" height="70" as="geometry" />
        </mxCell>
        <mxCell id="-7mqn2BqOzKnvA9Y6E0N-2" style="shape=partialRectangle;html=1;whiteSpace=wrap;connectable=0;strokeColor=inherit;overflow=hidden;fillColor=none;top=0;left=0;bottom=0;right=0;pointerEvents=1;fontSize=16;" vertex="1" parent="-7mqn2BqOzKnvA9Y6E0N-1">
          <mxGeometry width="160" height="70" as="geometry">
            <mxRectangle width="160" height="70" as="alternateBounds" />
          </mxGeometry>
        </mxCell>
        <mxCell id="-7mqn2BqOzKnvA9Y6E0N-3" style="shape=partialRectangle;html=1;whiteSpace=wrap;connectable=0;strokeColor=inherit;overflow=hidden;fillColor=none;top=0;left=0;bottom=0;right=0;pointerEvents=1;fontSize=16;" vertex="1" parent="-7mqn2BqOzKnvA9Y6E0N-1">
          <mxGeometry x="160" width="210" height="70" as="geometry">
            <mxRectangle width="210" height="70" as="alternateBounds" />
          </mxGeometry>
        </mxCell>
        <mxCell id="-7mqn2BqOzKnvA9Y6E0N-4" style="shape=partialRectangle;html=1;whiteSpace=wrap;connectable=0;strokeColor=inherit;overflow=hidden;fillColor=none;top=0;left=0;bottom=0;right=0;pointerEvents=1;fontSize=16;" vertex="1" parent="-7mqn2BqOzKnvA9Y6E0N-1">
          <mxGeometry x="370" width="440" height="70" as="geometry">
            <mxRectangle width="440" height="70" as="alternateBounds" />
          </mxGeometry>
        </mxCell>
        <mxCell id="-7mqn2BqOzKnvA9Y6E0N-5" value="&lt;u style=&quot;font-size: 30px;&quot;&gt;市民団体1&lt;/u&gt;" style="shape=partialRectangle;html=1;whiteSpace=wrap;connectable=0;strokeColor=inherit;overflow=hidden;fillColor=none;top=0;left=0;bottom=0;right=0;pointerEvents=1;fontSize=16;align=left;" vertex="1" parent="-7mqn2BqOzKnvA9Y6E0N-1">
          <mxGeometry x="810" width="580" height="70" as="geometry">
            <mxRectangle width="580" height="70" as="alternateBounds" />
          </mxGeometry>
        </mxCell>
        <mxCell id="wAjUPPsb0E5kBIjXr_kq-110" value="&lt;span style=&quot;font-size: 30px;&quot;&gt;閉じる&lt;/span&gt;" style="rounded=1;whiteSpace=wrap;html=1;" parent="cFaB45KztUIKXS-_cTrr-14" vertex="1">
          <mxGeometry x="1353" y="1589" width="210" height="60" as="geometry" />
        </mxCell>
        <mxCell id="-7mqn2BqOzKnvA9Y6E0N-0" value="&lt;font style=&quot;font-size: 30px;&quot;&gt;検索して指定&lt;/font&gt;" style="rounded=1;whiteSpace=wrap;html=1;fillColor=#CCCCCC;" vertex="1" parent="cFaB45KztUIKXS-_cTrr-14">
          <mxGeometry x="1030" y="107" width="200" height="60" as="geometry" />
        </mxCell>
        <mxCell id="-7mqn2BqOzKnvA9Y6E0N-26" value="&lt;font style=&quot;font-size: 30px;&quot;&gt;表示&lt;/font&gt;" style="rounded=1;whiteSpace=wrap;html=1;" vertex="1" parent="cFaB45KztUIKXS-_cTrr-14">
          <mxGeometry x="248" y="381" width="120" height="40" as="geometry" />
        </mxCell>
        <mxCell id="-7mqn2BqOzKnvA9Y6E0N-27" value="&lt;font style=&quot;font-size: 30px;&quot;&gt;表示&lt;/font&gt;" style="rounded=1;whiteSpace=wrap;html=1;" vertex="1" parent="cFaB45KztUIKXS-_cTrr-14">
          <mxGeometry x="238" y="551" width="120" height="40" as="geometry" />
        </mxCell>
        <mxCell id="-7mqn2BqOzKnvA9Y6E0N-28" value="&lt;font style=&quot;font-size: 30px;&quot;&gt;表示&lt;/font&gt;" style="rounded=1;whiteSpace=wrap;html=1;" vertex="1" parent="cFaB45KztUIKXS-_cTrr-14">
          <mxGeometry x="238" y="651" width="120" height="40" as="geometry" />
        </mxCell>
        <mxCell id="-7mqn2BqOzKnvA9Y6E0N-29" value="&lt;font style=&quot;font-size: 30px;&quot;&gt;表示&lt;/font&gt;" style="rounded=1;whiteSpace=wrap;html=1;" vertex="1" parent="cFaB45KztUIKXS-_cTrr-14">
          <mxGeometry x="238" y="781" width="120" height="40" as="geometry" />
        </mxCell>
      </root>
    </mxGraphModel>
  </diagram>
</mxfile>
